                      =!DK GROUP HD BLURAY RELEAESEES!=

===================================================================================

        Monsters Vs Aliens(2009)Bluray Rip In [Hindi-Eng]6CH.AC3 By !!!dip

===================================================================================

Storyline:

When a meteorite from outer space hits a young California woman named Susan Murphy and turns her into a giant monster, she is taken to a secret government compound where she meets a ragtag group of monsters also rounded up over the years. As a last resort, under the guidance of General W.R. Monger, on a desperate order from The President, the motley crew of Monsters is called into action to combat the aliens and save the world from imminent destruction! Written by Anthony Pereyra {hypersonic91@yahoo.com} 



Cast:

Reese Witherspoon...	Susan Murphy / Ginormica (voice)
Seth Rogen	 ...	B.O.B. (voice)
Hugh Laurie	 ...	Dr. Cockroach Ph.D. (voice)
Will Arnett	 ...	The Missing Link (voice)
Kiefer Sutherland...	General W.R. Monger (voice)
Rainn Wilson	 ...	Gallaxhar (voice)
Stephen Colbert	 ...	President Hathaway (voice)
Paul Rudd	 ...	Derek Dietl (voice)
Julie White	 ...	Wendy Murphy (voice)
Jeffrey Tambor	 ...	Carl Murphy (voice)
Amy Poehler	 ...	Computer (voice)
Ed Helms	 ...	News Reporter (voice)
Renée Zellweger	 ...	Katie (voice)
John Krasinski	 ...	Cuthbert (voice)
Sean Bishop	 ...	Private Bullhorn / Helicopter Pilot / Advisor Ortega (voice)


Directors :Rob Letterman, Conrad Vernon
Writers :Maya Forbes (screenplay), Wallace Wolodarsky (screenplay)
Stars:Reese Witherspoon, Rainn Wilson and Stephen Colbert
Genre:Animation | Action | Adventure
Language: English-Hindi
Format : Color, Dubbed,Widescreen
Release Date : 27 March 2009 (USA)
Run Time : 01H:30M:29S
Encoder: Deep Shikha




Video Specifications:

Video

ID : 1
Format : AVC
Format/Info : Advanced Video Codec
Format profile : High@L3.1
Format settings, CABAC : Yes
Format settings, ReFrames : 5 frames
Muxing mode : Header stripping
Codec ID : V_MPEG4/ISO/AVC
Duration : 1h 30mn
Bit rate : 2 674 Kbps
Width : 1 280 pixels
Height : 544 pixels
Display aspect ratio : 2.35:1
Frame rate : 25.000 fps
Original frame rate : 23.976 fps
Color space : YUV
Chroma subsampling : 4:2:0
Bit depth : 8 bits
Scan type : Progressive
Bits/(Pixel*Frame) : 0.154
Stream size : 1.72 GiB (75%)
Title : !!!dip
Team : DK Group HD Bluray Releases




Audio Specifications:





Audio #1
ID : 2
Format : AC-3
Format/Info : Audio Coding 3
Mode extension : CM (complete main)
Muxing mode : Header stripping
Codec ID : A_AC3
Duration : 1h 30mn
Bit rate mode : Constant
Bit rate : 448 Kbps
Channel(s) : 6 channels
Channel positions : Front: L C R, Side: L R, LFE
Sampling rate : 48.0 KHz
Bit depth : 16 bits
Compression mode : Lossy
Stream size : 290 MiB (12%)
Title : !!!dip
Language : English

Audio #2
ID : 3
Format : AC-3
Format/Info : Audio Coding 3
Mode extension : CM (complete main)
Muxing mode : Header stripping
Codec ID : A_AC3
Duration : 1h 30mn
Bit rate mode : Constant
Bit rate : 384 Kbps
Channel(s) : 6 channels
Channel positions : Front: L C R, Side: L R, LFE
Sampling rate : 48.0 KHz
Bit depth : 16 bits
Compression mode : Lossy
Stream size : 249 MiB (11%)
Title : !!!dip
Language : Hindi

Text
ID : 4
Format : UTF-8
Codec ID : S_TEXT/UTF8
Codec ID/Info : UTF-8 Plain Text
Language : English


SAMPLE IMAGE:

   
http://www.pix2links.com/image/5W6gx.jpg
 
http://www.pix2links.com/image/ZEB5y.jpg
 
http://www.pix2links.com/image/VydzR.jpg
 
http://www.pix2links.com/image/kMyJU.jpg
 
http://www.pix2links.com/image/Sx0X.jpg



VIDEO SAMPLE IS AVAILABLE				
